<?xml version="1.0" encoding="utf-8"?>
<!-- Generator: Adobe Illustrator 22.0.0, SVG Export Plug-In . SVG Version: 6.00 Build 0)  -->
<svg version="1.1" id="Слой_1" xmlns="http://www.w3.org/2000/svg" xmlns:xlink="http://www.w3.org/1999/xlink" x="0px" y="0px"
	 viewBox="0 0 512 512" style="enable-background:new 0 0 512 512;" xml:space="preserve">
<style type="text/css">
	.st0{fill:url(#SVGID_1_);}
	.st1{fill:#FFFFFF;filter:url(#Adobe_OpacityMaskFilter);}
	.st2{mask:url(#mask_1_);}
	.st3{fill:#473342;}
	.st4{fill:#FFFFFF;fill-opacity:0.4;}
	.st5{fill-opacity:5.000000e-02;}
</style>
<g>
	<g id="background">
		
			<linearGradient id="SVGID_1_" gradientUnits="userSpaceOnUse" x1="-48.4552" y1="652.8115" x2="-48.4552" y2="651.6802" gradientTransform="matrix(430.592 0 0 -430.08 21120.1523 280773.875)">
			<stop  offset="0" style="stop-color:#FECE43"/>
			<stop  offset="1" style="stop-color:#FECE43"/>
		</linearGradient>
		<path class="st0" d="M479.6,32.4c-13.1-13.1-29-19.7-47.5-19.7H79.6c-18.9,0-34.8,6.6-47.8,19.7c-13.1,13.1-19.7,29-19.7,47.5
			v352.1c0,18.5,6.6,34.4,19.7,47.5c12.9,13.1,28.9,19.7,47.8,19.7h352.4c18.5,0,34.4-6.6,47.5-19.7c13.1-13.1,19.7-29,19.7-47.5
			V79.9C499.3,61.4,492.7,45.6,479.6,32.4z"/>
	</g>
</g>
<defs>
	<filter id="Adobe_OpacityMaskFilter" filterUnits="userSpaceOnUse" x="100.6" y="113.3" width="304.1" height="278.7">
		<feColorMatrix  type="matrix" values="1 0 0 0 0  0 1 0 0 0  0 0 1 0 0  0 0 0 1 0"/>
	</filter>
</defs>
<mask maskUnits="userSpaceOnUse" x="100.6" y="113.3" width="304.1" height="278.7" id="mask_1_">
	<path class="st1" d="M488.8,84c0-16.6-6-30.9-18-42.9c-12-12-26.3-18-42.9-18H83.7c-16.6,0-30.9,6-42.9,18
		C29.1,53.1,23.2,67.4,23.2,84v344c0,17,5.9,31.3,17.7,42.9c12,12,26.3,18,42.9,18H428c16.6,0,30.9-6,42.9-18c12-12,18-26.3,18-42.9
		V84z"/>
</mask>
<g class="st2">
	
		<g transform="             translate(                                 61 61 )                             translate(0 0)  scale(0.525)                               translate(                                 -61 -61 )">
		<g>
			<g id="picture" transform="scale(2.0833334989018044) translate(0 -0.0000019073486328125)">
				<path class="st3" d="M298.9,280.4H110.1c-3.5,0-5.8,2.3-5.8,5.8v40c0,2.9,2.3,5.8,5.8,5.8h188.8c2.9,0,5.8-2.3,5.8-5.8v-40
					C304.7,283.3,301.8,280.4,298.9,280.4z M325.6,187.7h-47.5v-99c0-6.4-5.2-11.6-11.6-11.6H142.5c-6.4,0-11.6,5.2-11.6,11.6v99
					H83.5c-9.8,0-18,8.1-18,18v101.9c0,9.8,8.1,18,18,18h9.3v-38.8c0-9.8,7.5-17.4,17.4-17.4h188.8c9.8,0,17.4,8.1,17.4,17.4v38.8
					h9.3c9.8,0,18-8.1,18-18V205.7C343.5,195.8,335.4,187.7,325.6,187.7L325.6,187.7z M140.8,88.7c0-1.2,0.6-1.7,1.7-1.7h123.9
					c1.2,0,1.7,0.6,1.7,1.7v99H140.8V88.7z M135.6,213.8c0,3.5-2.9,5.8-5.8,5.8H98.5c-3.5,0-5.8-2.9-5.8-5.8v-5.2
					c0-3.5,2.3-5.8,5.8-5.8h31.3c3.5,0,5.8,2.9,5.8,5.8V213.8z M190,213.8c0,3.5-2.3,5.8-5.8,5.8H153c-2.9,0-5.8-2.9-5.8-5.8v-5.2
					c0-3.5,2.9-5.8,5.8-5.8h31.3c3.5,0,5.8,2.9,5.8,5.8V213.8z M252.6,103.7h-96.1c-1.7,0-3.5,1.7-3.5,3.5v0.6
					c0,1.7,1.7,3.5,3.5,3.5h96.1c1.7,0,3.5-1.7,3.5-3.5v-0.6C256.1,104.9,254.9,103.7,252.6,103.7z M252.6,132.1h-96.1
					c-1.7,0-3.5,1.7-3.5,3.5v0.6c0,1.7,1.7,3.5,3.5,3.5h96.1c1.7,0,3.5-1.7,3.5-3.5v-0.6C256.1,133.3,254.9,132.1,252.6,132.1z
					 M252.6,160.5h-96.1c-1.7,0-3.5,1.7-3.5,3.5v0.6c0,1.7,1.7,3.5,3.5,3.5h96.1c1.7,0,3.5-1.7,3.5-3.5V164
					C256.1,161.7,254.9,160.5,252.6,160.5z"/>
			</g>
		</g>
	</g>
</g>
<g>
	<g id="bottom-1">
		<path class="st4" d="M433.8,55.3c18.7,0,34.7,6.8,47.8,20.3c13.1,12.7,19.9,28.4,20.3,46.9V77.3c0-18.9-6.8-34.9-20.3-48.1
			C468.5,15.7,452.5,9,433.8,9H77.9C59,9,43,15.7,29.8,29.2C16.3,42.4,9.6,58.4,9.6,77.3v45.2c0.4-18.5,7.1-34.2,20.3-46.9
			C43,62.1,59,55.3,77.9,55.3H433.8z"/>
	</g>
</g>
<g>
	<g id="bottom-2">
		<path class="st5" d="M433.8,502.7c18,0,33.9-8.7,47.8-26.1c13.5-16.2,20.3-34.2,20.3-53.9v-56.2c-0.4,18.1-7.1,33.6-20.3,46.3
			c-13.1,13.5-29.1,20.3-47.8,20.3H77.9c-18.9,0-34.9-6.8-48.1-20.3c-13.1-12.7-19.9-28.2-20.3-46.3v56.2c0,19.7,6.8,37.6,20.3,53.9
			c13.9,17.4,29.9,26.1,48.1,26.1H433.8z"/>
	</g>
</g>
<g>
	<g id="bottom-3">
		<path class="st3" d="M512,84c0-23.2-8.3-42.9-24.9-59.1C470.5,8.3,450.8,0,428,0H83.7C60.5,0,40.9,8.3,24.9,24.9
			C8.3,41.1,0,60.8,0,84v344c0,23.2,8.3,43.1,24.9,59.7c16,16.2,35.6,24.3,58.8,24.3H428c22.8,0,42.5-8.1,59.1-24.3
			c16.6-16.6,24.9-36.5,24.9-59.7V84 M428,23.2c16.6,0,30.9,6,42.9,18c12,12,18,26.3,18,42.9v344c0,16.6-6,30.9-18,42.9
			c-12,12-26.3,18-42.9,18H83.7c-16.6,0-30.9-6-42.9-18C29.1,459.3,23.2,445,23.2,428V84c0-16.6,5.9-30.9,17.7-42.9
			c12-12,26.3-18,42.9-18H428z"/>
	</g>
</g>
</svg>
